<svg width="79" height="20" viewBox="0 0 79 20" fill="none" xmlns="http://www.w3.org/2000/svg">
<path d="M37.7188 10.085H32.1729V14.6201H38.6152V16H30.4854V3.20312H38.5273V4.5918H32.1729V8.70508H37.7188V10.085ZM43.8447 11.2275H39.5557V9.90039H43.8447V11.2275ZM46.9648 6.49023L47.0088 7.54492C47.7061 6.72461 48.6465 6.31445 49.8301 6.31445C51.1602 6.31445 52.0654 6.82422 52.5459 7.84375C52.8623 7.38672 53.2725 7.01758 53.7764 6.73633C54.2861 6.45508 54.8867 6.31445 55.5781 6.31445C57.6641 6.31445 58.7246 7.41895 58.7598 9.62793V16H57.1338V9.72461C57.1338 9.04492 56.9785 8.53809 56.668 8.2041C56.3574 7.86426 55.8359 7.69434 55.1035 7.69434C54.5 7.69434 53.999 7.87598 53.6006 8.23926C53.2021 8.59668 52.9707 9.08008 52.9062 9.68945V16H51.2715V9.76855C51.2715 8.38574 50.5947 7.69434 49.2412 7.69434C48.1748 7.69434 47.4453 8.14844 47.0527 9.05664V16H45.4268V6.49023H46.9648ZM67.0918 16C66.998 15.8125 66.9219 15.4785 66.8633 14.998C66.1074 15.7832 65.2051 16.1758 64.1562 16.1758C63.2188 16.1758 62.4482 15.9121 61.8447 15.3848C61.2471 14.8516 60.9482 14.1777 60.9482 13.3633C60.9482 12.373 61.3232 11.6055 62.0732 11.0605C62.8291 10.5098 63.8896 10.2344 65.2549 10.2344H66.8369V9.4873C66.8369 8.91895 66.667 8.46777 66.3271 8.13379C65.9873 7.79395 65.4863 7.62402 64.8242 7.62402C64.2441 7.62402 63.7578 7.77051 63.3652 8.06348C62.9727 8.35645 62.7764 8.71094 62.7764 9.12695H61.1416C61.1416 8.65234 61.3086 8.19531 61.6426 7.75586C61.9824 7.31055 62.4395 6.95898 63.0137 6.70117C63.5938 6.44336 64.2295 6.31445 64.9209 6.31445C66.0166 6.31445 66.875 6.58984 67.4961 7.14062C68.1172 7.68555 68.4395 8.43848 68.4629 9.39941V13.7764C68.4629 14.6494 68.5742 15.3438 68.7969 15.8594V16H67.0918ZM64.3936 14.7607C64.9033 14.7607 65.3867 14.6289 65.8438 14.3652C66.3008 14.1016 66.6318 13.7588 66.8369 13.3369V11.3857H65.5625C63.5703 11.3857 62.5742 11.9688 62.5742 13.1348C62.5742 13.6445 62.7441 14.043 63.084 14.3301C63.4238 14.6172 63.8604 14.7607 64.3936 14.7607ZM72.7783 16H71.1523V6.49023H72.7783V16ZM71.0205 3.96777C71.0205 3.7041 71.0996 3.48145 71.2578 3.2998C71.4219 3.11816 71.6621 3.02734 71.9785 3.02734C72.2949 3.02734 72.5352 3.11816 72.6992 3.2998C72.8633 3.48145 72.9453 3.7041 72.9453 3.96777C72.9453 4.23145 72.8633 4.45117 72.6992 4.62695C72.5352 4.80273 72.2949 4.89062 71.9785 4.89062C71.6621 4.89062 71.4219 4.80273 71.2578 4.62695C71.0996 4.45117 71.0205 4.23145 71.0205 3.96777ZM77.1553 16H75.5293V2.5H77.1553V16Z" fill="#030303"/>
<path d="M14.443 4.00025H0.554862C0.481958 4.00009 0.409744 4.01636 0.342363 4.04818C0.274982 4.07999 0.213762 4.1267 0.162211 4.18562C0.11066 4.24455 0.0697941 4.31454 0.0419587 4.39156C0.0141232 4.46857 -0.000136697 4.55112 9.87603e-07 4.63445V14.366C-0.000136697 14.4493 0.0141232 14.5319 0.0419587 14.6089C0.0697941 14.6859 0.11066 14.7559 0.162211 14.8148C0.213762 14.8737 0.274982 14.9204 0.342363 14.9522C0.409744 14.9841 0.481958 15.0004 0.554862 15.0002H14.443C14.516 15.0004 14.5884 14.9841 14.6559 14.9523C14.7234 14.9205 14.7847 14.8738 14.8364 14.8149C14.8882 14.7561 14.9292 14.6861 14.9573 14.6091C14.9853 14.5321 14.9999 14.4494 15 14.366V4.63445C14.9999 4.55101 14.9853 4.46841 14.9573 4.39138C14.9292 4.31435 14.8882 4.24437 14.8364 4.18548C14.7847 4.12659 14.7234 4.07993 14.6559 4.04814C14.5884 4.01635 14.516 4.00009 14.443 4.00025ZM13.6688 6.88578L7.83908 10.7388H7.37931L1.55173 6.88698C1.48634 6.84354 1.42908 6.7858 1.38322 6.71706C1.33735 6.64832 1.30378 6.56994 1.28443 6.48638C1.26507 6.40281 1.2603 6.31567 1.2704 6.23C1.28049 6.14432 1.30525 6.06177 1.34326 5.98703C1.38127 5.91229 1.43179 5.84686 1.49193 5.79443C1.55207 5.74201 1.62065 5.70364 1.69377 5.68152C1.76688 5.65939 1.84309 5.65394 1.91804 5.66548C1.993 5.67702 2.06523 5.70532 2.13062 5.74876L7.60815 9.37005L13.0857 5.74876C13.1511 5.70532 13.2233 5.67702 13.2983 5.66548C13.3732 5.65394 13.4494 5.65939 13.5225 5.68152C13.5956 5.70364 13.6642 5.74201 13.7244 5.79443C13.7845 5.84686 13.835 5.91229 13.873 5.98703C13.9111 6.06177 13.9358 6.14432 13.9459 6.23C13.956 6.31567 13.9512 6.40281 13.9319 6.48638C13.9125 6.56994 13.8789 6.64832 13.8331 6.71706C13.7872 6.7858 13.73 6.84354 13.6646 6.88698L13.6688 6.88578Z" fill="#030303"/>
</svg>
