<svg width="78" height="21" viewBox="0 0 78 21" fill="none" xmlns="http://www.w3.org/2000/svg">
<path d="M39.3201 16.8777H37.6238L31.1814 7.01636V16.8777H29.4851V4.08081H31.1814L37.6414 13.9861V4.08081H39.3201V16.8777ZM47.9333 16.8777C47.8396 16.6902 47.7634 16.3562 47.7048 15.8757C46.949 16.6609 46.0466 17.0535 44.9978 17.0535C44.0603 17.0535 43.2898 16.7898 42.6863 16.2625C42.0886 15.7292 41.7898 15.0554 41.7898 14.241C41.7898 13.2507 42.1648 12.4832 42.9148 11.9382C43.6707 11.3875 44.7312 11.1121 46.0964 11.1121H47.6785V10.365C47.6785 9.79663 47.5085 9.34546 47.1687 9.01147C46.8289 8.67163 46.3279 8.50171 45.6658 8.50171C45.0857 8.50171 44.5994 8.64819 44.2068 8.94116C43.8142 9.23413 43.6179 9.58862 43.6179 10.0046H41.9832C41.9832 9.53003 42.1501 9.073 42.4841 8.63354C42.824 8.18823 43.281 7.83667 43.8552 7.57886C44.4353 7.32104 45.071 7.19214 45.7625 7.19214C46.8582 7.19214 47.7166 7.46753 48.3376 8.01831C48.9587 8.56323 49.281 9.31616 49.3044 10.2771V14.6541C49.3044 15.5271 49.4158 16.2214 49.6384 16.7371V16.8777H47.9333ZM45.2351 15.6384C45.7449 15.6384 46.2283 15.5066 46.6853 15.2429C47.1423 14.9792 47.4734 14.6365 47.6785 14.2146V12.2634H46.4041C44.4119 12.2634 43.4158 12.8464 43.4158 14.0125C43.4158 14.5222 43.5857 14.9207 43.9255 15.2078C44.2654 15.4949 44.7019 15.6384 45.2351 15.6384ZM53.3826 7.36792L53.4265 8.42261C54.1238 7.60229 55.0642 7.19214 56.2478 7.19214C57.5779 7.19214 58.4832 7.7019 58.9636 8.72144C59.28 8.2644 59.6902 7.89526 60.1941 7.61401C60.7039 7.33276 61.3044 7.19214 61.9958 7.19214C64.0818 7.19214 65.1423 8.29663 65.1775 10.5056V16.8777H63.5515V10.6023C63.5515 9.92261 63.3962 9.41577 63.0857 9.08179C62.7751 8.74194 62.2537 8.57202 61.5212 8.57202C60.9177 8.57202 60.4167 8.75366 60.0183 9.11694C59.6199 9.47437 59.3884 9.95776 59.324 10.5671V16.8777H57.6892V10.6462C57.6892 9.26343 57.0125 8.57202 55.6589 8.57202C54.5925 8.57202 53.863 9.02612 53.4705 9.93433V16.8777H51.8445V7.36792H53.3826ZM71.5847 17.0535C70.2957 17.0535 69.2468 16.6316 68.4382 15.7878C67.6296 14.9382 67.2253 13.8044 67.2253 12.3865V12.0876C67.2253 11.1443 67.4041 10.3035 67.7615 9.56519C68.1248 8.82104 68.6287 8.24097 69.2732 7.82495C69.9236 7.40308 70.6267 7.19214 71.3826 7.19214C72.6189 7.19214 73.5798 7.59937 74.2654 8.41382C74.9509 9.22827 75.2937 10.3943 75.2937 11.9119V12.5886H68.8513C68.8748 13.5261 69.1472 14.2849 69.6687 14.865C70.196 15.4392 70.864 15.7263 71.6726 15.7263C72.2468 15.7263 72.7332 15.6091 73.1316 15.3748C73.53 15.1404 73.8787 14.8298 74.1775 14.4431L75.1707 15.2166C74.3738 16.4412 73.1785 17.0535 71.5847 17.0535ZM71.3826 8.52808C70.7263 8.52808 70.1755 8.76831 69.7302 9.24878C69.2849 9.72339 69.0095 10.3914 68.9041 11.2527H73.6677V11.1296C73.6208 10.3035 73.3982 9.66479 72.9998 9.21362C72.6013 8.75659 72.0623 8.52808 71.3826 8.52808Z" fill="#030303"/>
<path d="M7.9017 12.4575C7.9017 12.4312 7.91838 12.4097 7.91838 12.3854V10.71C7.91142 10.6634 7.90132 10.6171 7.88815 10.5716C8.54145 10.1925 9.07974 9.66291 9.45149 9.03359C9.82325 8.40426 10.016 7.69625 10.0114 6.97732C10.0114 4.78058 8.4385 3 6.49976 3C4.56101 3 2.98813 4.77961 2.98813 6.97732C3.00484 7.69886 3.21494 8.40495 3.59918 9.03088C3.98343 9.6568 4.52954 10.1825 5.18746 10.5599C5.1719 10.6091 5.1604 10.6593 5.15306 10.71V12.3834C5.1558 12.3969 5.15928 12.4102 5.16348 12.4234C2.19283 12.7664 -0.000244141 14.2751 -0.000244141 15.7672C-0.000244141 17.464 2.90891 18 6.49976 18C10.0906 18 12.9998 17.464 12.9998 15.7672C12.9987 14.3131 10.7952 12.8464 7.9017 12.4575Z" fill="#030303"/>
</svg>
