<svg width="129" height="23" viewBox="0 0 129 23" fill="none" xmlns="http://www.w3.org/2000/svg">
<path d="M32.1729 12.9902V18H30.4854V5.20312H35.2051C36.6055 5.20312 37.7012 5.56055 38.4922 6.27539C39.2891 6.99023 39.6875 7.93652 39.6875 9.11426C39.6875 10.3564 39.2979 11.3145 38.5186 11.9883C37.7451 12.6562 36.6348 12.9902 35.1875 12.9902H32.1729ZM32.1729 11.6104H35.2051C36.1074 11.6104 36.7988 11.3994 37.2793 10.9775C37.7598 10.5498 38 9.93457 38 9.13184C38 8.37012 37.7598 7.76074 37.2793 7.30371C36.7988 6.84668 36.1396 6.60938 35.3018 6.5918H32.1729V11.6104ZM43.2119 9.6416C43.9326 8.75684 44.8701 8.31445 46.0244 8.31445C48.0342 8.31445 49.0479 9.44824 49.0654 11.7158V18H47.4395V11.707C47.4336 11.0215 47.2754 10.5146 46.9648 10.1865C46.6602 9.8584 46.1826 9.69434 45.5322 9.69434C45.0049 9.69434 44.542 9.83496 44.1436 10.1162C43.7451 10.3975 43.4346 10.7666 43.2119 11.2236V18H41.5859V4.5H43.2119V9.6416ZM51.0693 13.1572C51.0693 12.2256 51.251 11.3877 51.6143 10.6436C51.9834 9.89941 52.4932 9.3252 53.1436 8.9209C53.7998 8.5166 54.5469 8.31445 55.3848 8.31445C56.6797 8.31445 57.7256 8.7627 58.5225 9.65918C59.3252 10.5557 59.7266 11.748 59.7266 13.2363V13.3506C59.7266 14.2764 59.5479 15.1084 59.1904 15.8467C58.8389 16.5791 58.332 17.1504 57.6699 17.5605C57.0137 17.9707 56.2578 18.1758 55.4023 18.1758C54.1133 18.1758 53.0674 17.7275 52.2646 16.8311C51.4678 15.9346 51.0693 14.748 51.0693 13.2715V13.1572ZM52.7041 13.3506C52.7041 14.4053 52.9473 15.252 53.4336 15.8906C53.9258 16.5293 54.582 16.8486 55.4023 16.8486C56.2285 16.8486 56.8848 16.5264 57.3711 15.8818C57.8574 15.2314 58.1006 14.3232 58.1006 13.1572C58.1006 12.1143 57.8516 11.2705 57.3535 10.626C56.8613 9.97559 56.2051 9.65039 55.3848 9.65039C54.582 9.65039 53.9346 9.96973 53.4424 10.6084C52.9502 11.2471 52.7041 12.1611 52.7041 13.3506ZM63.3037 8.49023L63.3564 9.68555C64.083 8.77148 65.0322 8.31445 66.2041 8.31445C68.2139 8.31445 69.2275 9.44824 69.2451 11.7158V18H67.6191V11.707C67.6133 11.0215 67.4551 10.5146 67.1445 10.1865C66.8398 9.8584 66.3623 9.69434 65.7119 9.69434C65.1846 9.69434 64.7217 9.83496 64.3232 10.1162C63.9248 10.3975 63.6143 10.7666 63.3916 11.2236V18H61.7656V8.49023H63.3037ZM75.6436 18.1758C74.3545 18.1758 73.3057 17.7539 72.4971 16.9102C71.6885 16.0605 71.2842 14.9268 71.2842 13.5088V13.21C71.2842 12.2666 71.4629 11.4258 71.8203 10.6875C72.1836 9.94336 72.6875 9.36328 73.332 8.94727C73.9824 8.52539 74.6855 8.31445 75.4414 8.31445C76.6777 8.31445 77.6387 8.72168 78.3242 9.53613C79.0098 10.3506 79.3525 11.5166 79.3525 13.0342V13.7109H72.9102C72.9336 14.6484 73.2061 15.4072 73.7275 15.9873C74.2549 16.5615 74.9229 16.8486 75.7314 16.8486C76.3057 16.8486 76.792 16.7314 77.1904 16.4971C77.5889 16.2627 77.9375 15.9521 78.2363 15.5654L79.2295 16.3389C78.4326 17.5635 77.2373 18.1758 75.6436 18.1758ZM75.4414 9.65039C74.7852 9.65039 74.2344 9.89062 73.7891 10.3711C73.3438 10.8457 73.0684 11.5137 72.9629 12.375H77.7266V12.252C77.6797 11.4258 77.457 10.7871 77.0586 10.3359C76.6602 9.87891 76.1211 9.65039 75.4414 9.65039Z" fill="#030303"/>
<path d="M12.3738 0H1.62824C1.19674 0.00106214 0.783231 0.167559 0.478113 0.463097C0.172995 0.758634 0.00109658 1.15916 0 1.57711V21.4229C0.00109658 21.8408 0.172995 22.2414 0.478113 22.5369C0.783231 22.8324 1.19674 22.9989 1.62824 23H12.3738C12.8051 22.9989 13.2184 22.8324 13.5232 22.5368C13.828 22.2412 13.9995 21.8406 14 21.4229V1.57711C13.9995 1.15935 13.828 0.758814 13.5232 0.463219C13.2184 0.167625 12.8051 0.00106404 12.3738 0ZM3.94496 21.1845H2.19003C2.0347 21.1845 1.88573 21.1247 1.7759 21.0183C1.66606 20.9119 1.60436 20.7677 1.60436 20.6172C1.60436 20.4668 1.66606 20.3225 1.7759 20.2161C1.88573 20.1097 2.0347 20.0499 2.19003 20.0499H3.94496C4.10029 20.0499 4.24926 20.1097 4.35909 20.2161C4.46893 20.3225 4.53063 20.4668 4.53063 20.6172C4.53063 20.7677 4.46893 20.9119 4.35909 21.0183C4.24926 21.1247 4.10029 21.1845 3.94496 21.1845ZM3.94496 19.023H2.19003C2.03497 19.023 1.88627 18.9634 1.77663 18.8572C1.66699 18.751 1.6054 18.6069 1.6054 18.4567C1.6054 18.3066 1.66699 18.1625 1.77663 18.0563C1.88627 17.9501 2.03497 17.8904 2.19003 17.8904H3.94496C4.10002 17.8904 4.24872 17.9501 4.35836 18.0563C4.468 18.1625 4.5296 18.3066 4.5296 18.4567C4.5296 18.6069 4.468 18.751 4.35836 18.8572C4.24872 18.9634 4.10002 19.023 3.94496 19.023ZM3.94496 16.8635H2.19003C2.0347 16.8635 1.88573 16.8037 1.7759 16.6974C1.66606 16.591 1.60436 16.4467 1.60436 16.2962C1.60436 16.1458 1.66606 16.0015 1.7759 15.8951C1.88573 15.7887 2.0347 15.729 2.19003 15.729H3.94496C4.10029 15.729 4.24926 15.7887 4.35909 15.8951C4.46893 16.0015 4.53063 16.1458 4.53063 16.2962C4.53063 16.4467 4.46893 16.591 4.35909 16.6974C4.24926 16.8037 4.10029 16.8635 3.94496 16.8635ZM3.94496 14.702H2.19003C2.0347 14.702 1.88573 14.6423 1.7759 14.5359C1.66606 14.4295 1.60436 14.2852 1.60436 14.1347C1.60436 13.9843 1.66606 13.84 1.7759 13.7336C1.88573 13.6272 2.0347 13.5674 2.19003 13.5674H3.94496C4.10029 13.5674 4.24926 13.6272 4.35909 13.7336C4.46893 13.84 4.53063 13.9843 4.53063 14.1347C4.53063 14.2852 4.46893 14.4295 4.35909 14.5359C4.24926 14.6423 4.10029 14.702 3.94496 14.702ZM7.87747 21.1855H6.12461C5.96928 21.1855 5.82031 21.1257 5.71048 21.0193C5.60065 20.913 5.53894 20.7687 5.53894 20.6182C5.53894 20.4678 5.60065 20.3235 5.71048 20.2171C5.82031 20.1107 5.96928 20.0509 6.12461 20.0509H7.87747C8.03279 20.0509 8.18176 20.1107 8.2916 20.2171C8.40143 20.3235 8.46313 20.4678 8.46313 20.6182C8.46313 20.7687 8.40143 20.913 8.2916 21.0193C8.18176 21.1257 8.03279 21.1855 7.87747 21.1855ZM7.87747 19.024H6.12461C6.04784 19.024 5.97181 19.0093 5.90088 18.9809C5.82995 18.9524 5.7655 18.9107 5.71121 18.8581C5.65692 18.8056 5.61386 18.7431 5.58448 18.6744C5.5551 18.6057 5.53998 18.5321 5.53998 18.4577C5.53998 18.3834 5.5551 18.3097 5.58448 18.241C5.61386 18.1723 5.65692 18.1099 5.71121 18.0573C5.7655 18.0047 5.82995 17.963 5.90088 17.9346C5.97181 17.9061 6.04784 17.8915 6.12461 17.8915H7.87747C7.95424 17.8915 8.03026 17.9061 8.10119 17.9346C8.17212 17.963 8.23658 18.0047 8.29086 18.0573C8.34515 18.1099 8.38822 18.1723 8.4176 18.241C8.44698 18.3097 8.4621 18.3834 8.4621 18.4577C8.4621 18.5321 8.44698 18.6057 8.4176 18.6744C8.38822 18.7431 8.34515 18.8056 8.29086 18.8581C8.23658 18.9107 8.17212 18.9524 8.10119 18.9809C8.03026 19.0093 7.95424 19.024 7.87747 19.024ZM7.87747 16.8645H6.12461C5.96928 16.8645 5.82031 16.8048 5.71048 16.6984C5.60065 16.592 5.53894 16.4477 5.53894 16.2972C5.53894 16.1468 5.60065 16.0025 5.71048 15.8961C5.82031 15.7897 5.96928 15.73 6.12461 15.73H7.87747C8.03279 15.73 8.18176 15.7897 8.2916 15.8961C8.40143 16.0025 8.46313 16.1468 8.46313 16.2972C8.46313 16.4477 8.40143 16.592 8.2916 16.6984C8.18176 16.8048 8.03279 16.8645 7.87747 16.8645ZM7.87747 14.703H6.12461C6.0477 14.703 5.97154 14.6884 5.90048 14.6598C5.82943 14.6313 5.76486 14.5895 5.71048 14.5369C5.6561 14.4842 5.61295 14.4217 5.58352 14.3528C5.55409 14.284 5.53894 14.2102 5.53894 14.1357C5.53894 14.0612 5.55409 13.9875 5.58352 13.9187C5.61295 13.8498 5.6561 13.7873 5.71048 13.7346C5.76486 13.6819 5.82943 13.6401 5.90048 13.6116C5.97154 13.5831 6.0477 13.5685 6.12461 13.5685H7.87747C7.95438 13.5685 8.03053 13.5831 8.10159 13.6116C8.17265 13.6401 8.23721 13.6819 8.2916 13.7346C8.34598 13.7873 8.38912 13.8498 8.41856 13.9187C8.44799 13.9875 8.46313 14.0612 8.46313 14.1357C8.46313 14.2102 8.44799 14.284 8.41856 14.3528C8.38912 14.4217 8.34598 14.4842 8.2916 14.5369C8.23721 14.5895 8.17265 14.6313 8.10159 14.6598C8.03053 14.6884 7.95438 14.703 7.87747 14.703ZM11.81 21.1865H10.055C9.89971 21.1865 9.75074 21.1267 9.64091 21.0204C9.53107 20.914 9.46937 20.7697 9.46937 20.6192C9.46937 20.4688 9.53107 20.3245 9.64091 20.2181C9.75074 20.1117 9.89971 20.052 10.055 20.052H11.81C11.9653 20.052 12.1143 20.1117 12.2241 20.2181C12.3339 20.3245 12.3956 20.4688 12.3956 20.6192C12.3956 20.7697 12.3339 20.914 12.2241 21.0204C12.1143 21.1267 11.9653 21.1865 11.81 21.1865ZM11.81 19.025H10.055C9.89998 19.025 9.75128 18.9653 9.64164 18.8591C9.532 18.753 9.47041 18.6089 9.47041 18.4587C9.47041 18.3085 9.532 18.1645 9.64164 18.0583C9.75128 17.9521 9.89998 17.8925 10.055 17.8925H11.81C11.965 17.8925 12.1137 17.9521 12.2234 18.0583C12.333 18.1645 12.3946 18.3085 12.3946 18.4587C12.3946 18.6089 12.333 18.753 12.2234 18.8591C12.1137 18.9653 11.965 19.025 11.81 19.025ZM11.81 16.8655H10.055C9.97813 16.8655 9.90197 16.8509 9.83091 16.8223C9.75985 16.7938 9.69529 16.7521 9.64091 16.6994C9.58652 16.6467 9.54338 16.5842 9.51395 16.5153C9.48452 16.4465 9.46937 16.3727 9.46937 16.2982C9.46937 16.2237 9.48452 16.15 9.51395 16.0812C9.54338 16.0123 9.58652 15.9498 9.64091 15.8971C9.69529 15.8444 9.75985 15.8026 9.83091 15.7741C9.90197 15.7456 9.97813 15.731 10.055 15.731H11.81C11.8869 15.731 11.963 15.7456 12.0341 15.7741C12.1052 15.8026 12.1697 15.8444 12.2241 15.8971C12.2785 15.9498 12.3216 16.0123 12.3511 16.0812C12.3805 16.15 12.3956 16.2237 12.3956 16.2982C12.3956 16.3727 12.3805 16.4465 12.3511 16.5153C12.3216 16.5842 12.2785 16.6467 12.2241 16.6994C12.1697 16.7521 12.1052 16.7938 12.0341 16.8223C11.963 16.8509 11.8869 16.8655 11.81 16.8655ZM11.81 14.704H10.055C9.89971 14.704 9.75074 14.6442 9.64091 14.5379C9.53107 14.4315 9.46937 14.2872 9.46937 14.1367C9.46937 13.9863 9.53107 13.842 9.64091 13.7356C9.75074 13.6292 9.89971 13.5695 10.055 13.5695H11.81C11.9653 13.5695 12.1143 13.6292 12.2241 13.7356C12.3339 13.842 12.3956 13.9863 12.3956 14.1367C12.3956 14.2872 12.3339 14.4315 12.2241 14.5379C12.1143 14.6442 11.9653 14.704 11.81 14.704ZM12.433 12.2619H1.56905V1.85171H12.4299L12.433 12.2619Z" fill="#030303"/>
</svg>
